<?xml version="1.0" encoding="utf-8"?>
<svg width="185.83325px" height="149.6665px" viewBox="0 0 185.83325 149.6665" version="1.1" xmlns:xlink="http://www.w3.org/1999/xlink" xmlns="http://www.w3.org/2000/svg">
  <path d="M-2916.7 -4778.33L-2916.7 -4796.42C-2916.7 -4801.41 -2914.93 -4805.67 -2911.4 -4809.2C-2907.87 -4812.73 -2903.61 -4814.5 -2898.62 -4814.5L-2753.95 -4814.5C-2748.96 -4814.5 -2744.69 -4812.73 -2741.16 -4809.2C-2737.63 -4805.67 -2735.87 -4801.41 -2735.87 -4796.42L-2735.87 -4687.92C-2735.87 -4682.92 -2737.63 -4678.66 -2741.16 -4675.13C-2744.69 -4671.6 -2748.96 -4669.83 -2753.95 -4669.83L-2898.62 -4669.83C-2903.61 -4669.83 -2907.87 -4671.6 -2911.4 -4675.13C-2914.93 -4678.66 -2916.7 -4682.92 -2916.7 -4687.92L-2916.7 -4778.33Z" id="Line" fill="none" fill-rule="evenodd" stroke="#FFFFFF" stroke-width="5" stroke-linecap="round" stroke-linejoin="round" />
  <path d="M90.4166 54.3946C85.6424 48.6072 78.5428 45.2412 71.0403 45.2083C56.7816 45.2083 45.2083 57.3512 45.2083 72.3333C45.2083 87.3153 56.7816 99.4583 71.0403 99.4583C78.7619 99.4583 85.6878 95.9049 90.4166 90.2719M135.625 72.3333C135.625 87.3153 124.051 99.4583 109.793 99.4583C95.5249 99.4583 83.9606 87.3153 83.9606 72.3333C83.9606 57.3512 95.5249 45.2083 109.793 45.2083C124.051 45.2083 135.625 57.3512 135.625 72.3333L135.625 72.3333Z" id="Shape" fill="none" fill-rule="evenodd" stroke="#FFFFFF" stroke-width="5" stroke-linecap="round" stroke-linejoin="round" />
</svg>