<?xml version="1.0" encoding="utf-8"?>
<svg width="106px" height="123px" viewBox="0 0 106 123" version="1.1" xmlns:xlink="http://www.w3.org/1999/xlink" xmlns="http://www.w3.org/2000/svg">
  <defs>
    <linearGradient gradientUnits="objectBoundingBox" x1="0.8569736" y1="0.19099401" x2="0" y2="1" id="gradient_1">
      <stop offset="0%" stop-color="#F52D54" />
      <stop offset="100%" stop-color="#2196F3" />
    </linearGradient>
  </defs>
  <g id="Group-8">
    <g id="Group-6">
      <path d="M0 0L106 0L106 122L0 122L0 0Z" id="Rectangle-6" fill="url(#gradient_1)" fill-rule="evenodd" stroke="none" />
    </g>
    <path d="M3.99951 42.5C3.99951 40.0147 6.01423 38 8.49951 38C10.9848 38 12.9995 40.0147 12.9995 42.5C12.9995 44.9853 10.9848 47 8.49951 47C6.01423 47 3.99951 44.9853 3.99951 42.5Z" id="Oval" fill="#FFFFFF" fill-rule="evenodd" stroke="none" />
    <path d="M4 65.5C4 63.0147 6.01472 61 8.5 61C10.9853 61 13 63.0147 13 65.5C13 67.9853 10.9853 70 8.5 70C6.01472 70 4 67.9853 4 65.5Z" id="Oval-2" fill="#FFFFFF" fill-rule="evenodd" stroke="none" />
    <path d="M20.5 0L20.5 122" id="Line" fill="none" fill-rule="evenodd" stroke="#FFFFFF" stroke-width="1" stroke-linecap="square" />
    <g id="Group-7" transform="translate(71 0)">
      <path d="M20 0L0 0L0 25L10 16.6667L20 25L20 0Z" id="Rectangle-6-Subtract" fill="#FFFFFF" fill-rule="evenodd" stroke="none" />
      <g id="$" transform="translate(6 2.083333)">
        <g id="$" fill="#F52D54">
          <path d="M3.47754 12.7148L3.47754 11.7656Q2.2207 11.6836 1.48535 11.0332Q0.75293 10.3799 0.682617 9.375L1.77246 9.375Q1.82812 10.0342 2.31738 10.3857Q2.80957 10.7373 3.47754 10.8076L3.47754 7.58203L3.1377 7.48242Q2.1123 7.18945 1.51465 6.64453Q0.919922 6.09668 0.919922 5.21484Q0.919922 4.54688 1.25391 4.03125Q1.59082 3.5127 2.16797 3.19629Q2.74512 2.87695 3.47754 2.80078L3.47754 1.80762L4.1748 1.80762L4.1748 2.78613Q4.94824 2.83887 5.54297 3.14941Q6.14062 3.45703 6.48633 3.95801Q6.83203 4.45605 6.85254 5.08008L5.83008 5.08008Q5.7627 4.5 5.30859 4.14844Q4.85449 3.79688 4.1748 3.72949L4.1748 6.75879L4.51758 6.85254Q4.85742 6.94043 5.27637 7.09863Q5.69824 7.25684 6.08203 7.5293Q6.46875 7.79883 6.7207 8.2207Q6.97266 8.64258 6.97266 9.25488Q6.97266 9.91992 6.64453 10.4678Q6.31934 11.0127 5.69531 11.3613Q5.07129 11.707 4.1748 11.7656L4.1748 12.7148L3.47754 12.7148ZM4.1748 10.8076Q4.94824 10.7227 5.44922 10.3037Q5.9502 9.88184 5.9502 9.2373Q5.9502 8.80371 5.70703 8.53125Q5.46387 8.25879 5.06543 8.08887Q4.66992 7.91895 4.20996 7.79004L4.1748 7.78125L4.1748 10.8076ZM3.47754 6.57129L3.47754 3.74121Q2.77441 3.83203 2.3584 4.22168Q1.94238 4.61133 1.94238 5.16504Q1.94238 5.59863 2.19141 5.87695Q2.44043 6.15234 2.79492 6.31641Q3.15234 6.48047 3.47754 6.57129Z" />
        </g>
      </g>
    </g>
  </g>
</svg>